<svg xmlns="http://www.w3.org/2000/svg" xmlns:xlink="http://www.w3.org/1999/xlink" width="1050" height="385.65"><rect width="1050" height="385.65" rx="5" ry="5" class="a"/><svg y="0%" x="0%"><circle cx="20" cy="20" r="6" fill="#ff5f58"/><circle cx="40" cy="20" r="6" fill="#ffbd2e"/><circle cx="60" cy="20" r="6" fill="#18c132"/></svg><svg height="325.65" viewBox="0 0 101 32.565" width="1010" x="15" xmlns="http://www.w3.org/2000/svg" xmlns:xlink="http://www.w3.org/1999/xlink" y="50"><style>@keyframes j{0%{transform:translateX(0)}.25%{transform:translateX(-101px)}2.16%{transform:translateX(-202px)}3.07%{transform:translateX(-303px)}3.72%{transform:translateX(-404px)}4.39%{transform:translateX(-505px)}4.96%{transform:translateX(-606px)}6.1%{transform:translateX(-707px)}6.81%{transform:translateX(-808px)}7.49%{transform:translateX(-909px)}8.29%{transform:translateX(-1010px)}9.85%{transform:translateX(-1111px)}10.31%{transform:translateX(-1212px)}10.98%{transform:translateX(-1313px)}11.74%{transform:translateX(-1414px)}12.38%{transform:translateX(-1515px)}12.69%{transform:translateX(-1616px)}13.5%{transform:translateX(-1717px)}14.95%{transform:translateX(-1818px)}15.8%{transform:translateX(-1919px)}16.49%{transform:translateX(-2020px)}17.16%{transform:translateX(-2121px)}18.4%{transform:translateX(-2222px)}19.31%{transform:translateX(-2323px)}19.72%{transform:translateX(-2424px)}20.52%{transform:translateX(-2525px)}21.61%{transform:translateX(-2626px)}21.93%{transform:translateX(-2727px)}22.64%{transform:translateX(-2828px)}22.99%{transform:translateX(-2929px)}23.38%{transform:translateX(-3030px)}23.78%{transform:translateX(-3131px)}24.44%{transform:translateX(-3232px)}25.8%{transform:translateX(-3333px)}26.58%{transform:translateX(-3434px)}27.07%{transform:translateX(-3535px)}27.94%{transform:translateX(-3636px)}29.07%{transform:translateX(-3737px)}29.89%{transform:translateX(-3838px)}30.67%{transform:translateX(-3939px)}31.8%{transform:translateX(-4040px)}32.53%{transform:translateX(-4141px)}33.08%{transform:translateX(-4242px)}33.69%{transform:translateX(-4343px)}34.87%{transform:translateX(-4444px)}35.55%{transform:translateX(-4545px)}36.3%{transform:translateX(-4646px)}36.79%{transform:translateX(-4747px)}36.98%{transform:translateX(-4848px)}37.81%{transform:translateX(-4949px)}38.73%{transform:translateX(-5050px)}41.09%{transform:translateX(-5151px)}43.21%{transform:translateX(-5252px)}44.56%{transform:translateX(-5353px)}46.04%{transform:translateX(-5454px)}50.57%{transform:translateX(-5656px)}50.58%{transform:translateX(-5858px)}50.6%{transform:translateX(-5959px)}64.29%{transform:translateX(-6060px)}65%{transform:translateX(-6161px)}65.71%{transform:translateX(-6262px)}66.43%{transform:translateX(-6363px)}67.14%{transform:translateX(-6464px)}67.86%{transform:translateX(-6565px)}68.57%{transform:translateX(-6666px)}69.29%{transform:translateX(-6767px)}70%{transform:translateX(-6868px)}70.71%{transform:translateX(-6969px)}71.43%{transform:translateX(-7070px)}72.14%{transform:translateX(-7171px)}72.86%{transform:translateX(-7272px)}73.57%{transform:translateX(-7373px)}74.29%{transform:translateX(-7474px)}75%{transform:translateX(-7575px)}75.71%{transform:translateX(-7676px)}76.43%{transform:translateX(-7777px)}77.14%{transform:translateX(-7878px)}77.86%{transform:translateX(-7979px)}78.57%{transform:translateX(-8080px)}79.29%{transform:translateX(-8181px)}80%{transform:translateX(-8282px)}80.71%{transform:translateX(-8383px)}81.43%{transform:translateX(-8484px)}82.14%{transform:translateX(-8585px)}82.86%{transform:translateX(-8686px)}83.57%{transform:translateX(-8787px)}84.29%{transform:translateX(-8888px)}85%{transform:translateX(-8989px)}to{transform:translateX(-9090px)}}.a{fill:#282d35}.f,.g{white-space:pre}.f{fill:#a8cc8c;font-weight:700}.g{fill:#b9c0cb}</style><g font-family="Monaco,Consolas,Menlo,'Bitstream Vera Sans Mono','Powerline Symbols',monospace" font-size="1.67"><defs><symbol id="10"><text y="1.67" class="g">FolderCollection(&apos;00163E703AAD1EEA94859B12EF767374&apos;)</text></symbol><symbol id="1"><text y="1.67" class="f">&gt;</text></symbol><symbol id="3"><text y="1.67" class="f">&gt;</text><text x="2.004" y="1.67" class="g">CloudCopy</text><text x="12.024" y="1.67" class="g">upload</text></symbol><symbol id="4"><text y="1.67" class="f">&gt;</text><text x="2.004" y="1.67" class="g">CloudCopy</text><text x="12.024" y="1.67" class="g">upload</text><text x="19.038" y="1.67" class="g">NewAttachment.txt</text></symbol><symbol id="5"><text y="1.67" class="f">&gt;</text><text x="2.004" y="1.67" class="g">CloudCopy</text><text x="12.024" y="1.67" class="g">upload</text><text x="19.038" y="1.67" class="g">NewAttachment.txt</text><text x="37.074" y="1.67" class="g">ServiceRequest:#2</text></symbol><symbol id="6"><text y="1.67" class="g">Remote</text><text x="7.014" y="1.67" class="g">Filename:</text><text x="17.034" y="1.67" class="g">NewAttachment.txt</text></symbol><symbol id="7"><text y="1.67" class="g">UUID:</text><text x="6.012" y="1.67" class="g">00163E70-3AAD-1EEA-9485-9B12EF767374</text></symbol><symbol id="8"><text y="1.67" class="g">MimeType:</text><text x="10.02" y="1.67" class="g">text/plain</text></symbol><symbol id="9"><text y="1.67" class="g">Metadata</text><text x="9.018" y="1.67" class="g">URI:</text><text x="14.028" y="1.67" class="g">https://myxxxxxx.crm.ondemand.com/sap/c4c/odata/v1/c4codataapi/ServiceRequestAttachment</text></symbol><symbol id="2"><text y="1.67" class="f">&gt;</text><text x="2.004" y="1.67" class="g">CloudCopy</text></symbol><symbol id="11"><text y="1.67" class="g">Download</text><text x="9.018" y="1.67" class="g">URI:</text><text x="14.028" y="1.67" class="g">https://myxxxxxx.crm.ondemand.com/sap/c4c/odata/v1/c4codataapi/ServiceRequestAttachment</text></symbol><symbol id="12"><text y="1.67" class="g">FolderCollection(&apos;00163E703AAD1EEA94859B12EF767374&apos;)/Binary/$value</text></symbol><symbol id="13"><text y="1.67" class="f">&gt;</text><text x="2.004" y="1.67" class="g">echo</text></symbol><symbol id="14"><text y="1.67" class="f">&gt;</text><text x="2.004" y="1.67" class="g">echo</text><text x="7.014" y="1.67" class="g">&quot;See</text></symbol><symbol id="15"><text y="1.67" class="f">&gt;</text><text x="2.004" y="1.67" class="g">echo</text><text x="7.014" y="1.67" class="g">&quot;See</text><text x="12.024" y="1.67" class="g">more</text></symbol><symbol id="16"><text y="1.67" class="f">&gt;</text><text x="2.004" y="1.67" class="g">echo</text><text x="7.014" y="1.67" class="g">&quot;See</text><text x="12.024" y="1.67" class="g">more</text><text x="17.034" y="1.67" class="g">examples</text></symbol><symbol id="17"><text y="1.67" class="f">&gt;</text><text x="2.004" y="1.67" class="g">echo</text><text x="7.014" y="1.67" class="g">&quot;See</text><text x="12.024" y="1.67" class="g">more</text><text x="17.034" y="1.67" class="g">examples</text><text x="26.052" y="1.67" class="g">below&quot;</text></symbol><symbol id="a"><path fill="transparent" d="M0 0h101v16H0z"/></symbol><symbol id="b"><path fill="#6f7683" d="M0 0h1.102v2.171H0z"/></symbol></defs><path class="a" d="M0 0h101v32.565H0z"/><g style="animation-duration:28s;animation-iteration-count:infinite;animation-name:j;animation-timing-function:steps(1,end)"><svg width="9191"><svg><use xlink:href="#a"/><use xlink:href="#b" x="-.004"/></svg><svg x="101"><use xlink:href="#a"/><use xlink:href="#b" x="1.996"/><use xlink:href="#1"/></svg><svg x="202"><use xlink:href="#a"/><use xlink:href="#b" x="2.996"/><text y="1.67" class="f">&gt;</text><text x="2.004" y="1.67" class="g">C</text></svg><svg x="303"><use xlink:href="#a"/><use xlink:href="#b" x="3.996"/><text y="1.67" class="f">&gt;</text><text x="2.004" y="1.67" class="g">Cl</text></svg><svg x="404"><use xlink:href="#a"/><use xlink:href="#b" x="4.996"/><text y="1.67" class="f">&gt;</text><text x="2.004" y="1.67" class="g">Clo</text></svg><svg x="505"><use xlink:href="#a"/><use xlink:href="#b" x="5.996"/><text y="1.67" class="f">&gt;</text><text x="2.004" y="1.67" class="g">Clou</text></svg><svg x="606"><use xlink:href="#a"/><use xlink:href="#b" x="6.996"/><text y="1.67" class="f">&gt;</text><text x="2.004" y="1.67" class="g">Cloud</text></svg><svg x="707"><use xlink:href="#a"/><use xlink:href="#b" x="7.996"/><text y="1.67" class="f">&gt;</text><text x="2.004" y="1.67" class="g">CloudC</text></svg><svg x="808"><use xlink:href="#a"/><use xlink:href="#b" x="8.996"/><text y="1.67" class="f">&gt;</text><text x="2.004" y="1.67" class="g">CloudCo</text></svg><svg x="909"><use xlink:href="#a"/><use xlink:href="#b" x="9.996"/><text y="1.67" class="f">&gt;</text><text x="2.004" y="1.67" class="g">CloudCop</text></svg><svg x="1010"><use xlink:href="#a"/><use xlink:href="#b" x="10.996"/><use xlink:href="#2"/></svg><svg x="1111"><use xlink:href="#a"/><use xlink:href="#b" x="11.996"/><use xlink:href="#2"/></svg><svg x="1212"><use xlink:href="#a"/><use xlink:href="#b" x="12.996"/><text y="1.67" class="f">&gt;</text><text x="2.004" y="1.67" class="g">CloudCopy</text><text x="12.024" y="1.67" class="g">u</text></svg><svg x="1313"><use xlink:href="#a"/><use xlink:href="#b" x="13.996"/><text y="1.67" class="f">&gt;</text><text x="2.004" y="1.67" class="g">CloudCopy</text><text x="12.024" y="1.67" class="g">up</text></svg><svg x="1414"><use xlink:href="#a"/><use xlink:href="#b" x="14.996"/><text y="1.67" class="f">&gt;</text><text x="2.004" y="1.67" class="g">CloudCopy</text><text x="12.024" y="1.67" class="g">upl</text></svg><svg x="1515"><use xlink:href="#a"/><use xlink:href="#b" x="15.996"/><text y="1.67" class="f">&gt;</text><text x="2.004" y="1.67" class="g">CloudCopy</text><text x="12.024" y="1.67" class="g">uplo</text></svg><svg x="1616"><use xlink:href="#a"/><use xlink:href="#b" x="16.996"/><text y="1.67" class="f">&gt;</text><text x="2.004" y="1.67" class="g">CloudCopy</text><text x="12.024" y="1.67" class="g">uploa</text></svg><svg x="1717"><use xlink:href="#a"/><use xlink:href="#b" x="17.996"/><use xlink:href="#3"/></svg><svg x="1818"><use xlink:href="#a"/><use xlink:href="#b" x="18.996"/><use xlink:href="#3"/></svg><svg x="1919"><use xlink:href="#a"/><use xlink:href="#b" x="19.996"/><text y="1.67" class="f">&gt;</text><text x="2.004" y="1.67" class="g">CloudCopy</text><text x="12.024" y="1.67" class="g">upload</text><text x="19.038" y="1.67" class="g">N</text></svg><svg x="2020"><use xlink:href="#a"/><use xlink:href="#b" x="20.996"/><text y="1.67" class="f">&gt;</text><text x="2.004" y="1.67" class="g">CloudCopy</text><text x="12.024" y="1.67" class="g">upload</text><text x="19.038" y="1.67" class="g">Ne</text></svg><svg x="2121"><use xlink:href="#a"/><use xlink:href="#b" x="21.996"/><text y="1.67" class="f">&gt;</text><text x="2.004" y="1.67" class="g">CloudCopy</text><text x="12.024" y="1.67" class="g">upload</text><text x="19.038" y="1.67" class="g">New</text></svg><svg x="2222"><use xlink:href="#a"/><use xlink:href="#b" x="22.996"/><text y="1.67" class="f">&gt;</text><text x="2.004" y="1.67" class="g">CloudCopy</text><text x="12.024" y="1.67" class="g">upload</text><text x="19.038" y="1.67" class="g">NewA</text></svg><svg x="2323"><use xlink:href="#a"/><use xlink:href="#b" x="23.996"/><text y="1.67" class="f">&gt;</text><text x="2.004" y="1.67" class="g">CloudCopy</text><text x="12.024" y="1.67" class="g">upload</text><text x="19.038" y="1.67" class="g">NewAt</text></svg><svg x="2424"><use xlink:href="#a"/><use xlink:href="#b" x="24.996"/><text y="1.67" class="f">&gt;</text><text x="2.004" y="1.67" class="g">CloudCopy</text><text x="12.024" y="1.67" class="g">upload</text><text x="19.038" y="1.67" class="g">NewAtt</text></svg><svg x="2525"><use xlink:href="#a"/><use xlink:href="#b" x="25.996"/><text y="1.67" class="f">&gt;</text><text x="2.004" y="1.67" class="g">CloudCopy</text><text x="12.024" y="1.67" class="g">upload</text><text x="19.038" y="1.67" class="g">NewAtta</text></svg><svg x="2626"><use xlink:href="#a"/><use xlink:href="#b" x="26.996"/><text y="1.67" class="f">&gt;</text><text x="2.004" y="1.67" class="g">CloudCopy</text><text x="12.024" y="1.67" class="g">upload</text><text x="19.038" y="1.67" class="g">NewAttac</text></svg><svg x="2727"><use xlink:href="#a"/><use xlink:href="#b" x="27.996"/><text y="1.67" class="f">&gt;</text><text x="2.004" y="1.67" class="g">CloudCopy</text><text x="12.024" y="1.67" class="g">upload</text><text x="19.038" y="1.67" class="g">NewAttach</text></svg><svg x="2828"><use xlink:href="#a"/><use xlink:href="#b" x="28.996"/><text y="1.67" class="f">&gt;</text><text x="2.004" y="1.67" class="g">CloudCopy</text><text x="12.024" y="1.67" class="g">upload</text><text x="19.038" y="1.67" class="g">NewAttachm</text></svg><svg x="2929"><use xlink:href="#a"/><use xlink:href="#b" x="29.996"/><text y="1.67" class="f">&gt;</text><text x="2.004" y="1.67" class="g">CloudCopy</text><text x="12.024" y="1.67" class="g">upload</text><text x="19.038" y="1.67" class="g">NewAttachme</text></svg><svg x="3030"><use xlink:href="#a"/><use xlink:href="#b" x="30.996"/><text y="1.67" class="f">&gt;</text><text x="2.004" y="1.67" class="g">CloudCopy</text><text x="12.024" y="1.67" class="g">upload</text><text x="19.038" y="1.67" class="g">NewAttachmen</text></svg><svg x="3131"><use xlink:href="#a"/><use xlink:href="#b" x="31.996"/><text y="1.67" class="f">&gt;</text><text x="2.004" y="1.67" class="g">CloudCopy</text><text x="12.024" y="1.67" class="g">upload</text><text x="19.038" y="1.67" class="g">NewAttachment</text></svg><svg x="3232"><use xlink:href="#a"/><use xlink:href="#b" x="32.996"/><text y="1.67" class="f">&gt;</text><text x="2.004" y="1.67" class="g">CloudCopy</text><text x="12.024" y="1.67" class="g">upload</text><text x="19.038" y="1.67" class="g">NewAttachment.</text></svg><svg x="3333"><use xlink:href="#a"/><use xlink:href="#b" x="33.996"/><text y="1.67" class="f">&gt;</text><text x="2.004" y="1.67" class="g">CloudCopy</text><text x="12.024" y="1.67" class="g">upload</text><text x="19.038" y="1.67" class="g">NewAttachment.t</text></svg><svg x="3434"><use xlink:href="#a"/><use xlink:href="#b" x="34.996"/><text y="1.67" class="f">&gt;</text><text x="2.004" y="1.67" class="g">CloudCopy</text><text x="12.024" y="1.67" class="g">upload</text><text x="19.038" y="1.67" class="g">NewAttachment.tx</text></svg><svg x="3535"><use xlink:href="#a"/><use xlink:href="#b" x="35.996"/><use xlink:href="#4"/></svg><svg x="3636"><use xlink:href="#a"/><use xlink:href="#b" x="36.996"/><use xlink:href="#4"/></svg><svg x="3737"><use xlink:href="#a"/><use xlink:href="#b" x="37.996"/><text y="1.67" class="f">&gt;</text><text x="2.004" y="1.67" class="g">CloudCopy</text><text x="12.024" y="1.67" class="g">upload</text><text x="19.038" y="1.67" class="g">NewAttachment.txt</text><text x="37.074" y="1.67" class="g">S</text></svg><svg x="3838"><use xlink:href="#a"/><use xlink:href="#b" x="38.996"/><text y="1.67" class="f">&gt;</text><text x="2.004" y="1.67" class="g">CloudCopy</text><text x="12.024" y="1.67" class="g">upload</text><text x="19.038" y="1.67" class="g">NewAttachment.txt</text><text x="37.074" y="1.67" class="g">Se</text></svg><svg x="3939"><use xlink:href="#a"/><use xlink:href="#b" x="39.996"/><text y="1.67" class="f">&gt;</text><text x="2.004" y="1.67" class="g">CloudCopy</text><text x="12.024" y="1.67" class="g">upload</text><text x="19.038" y="1.67" class="g">NewAttachment.txt</text><text x="37.074" y="1.67" class="g">Ser</text></svg><svg x="4040"><use xlink:href="#a"/><use xlink:href="#b" x="40.996"/><text y="1.67" class="f">&gt;</text><text x="2.004" y="1.67" class="g">CloudCopy</text><text x="12.024" y="1.67" class="g">upload</text><text x="19.038" y="1.67" class="g">NewAttachment.txt</text><text x="37.074" y="1.67" class="g">Serv</text></svg><svg x="4141"><use xlink:href="#a"/><use xlink:href="#b" x="41.996"/><text y="1.67" class="f">&gt;</text><text x="2.004" y="1.67" class="g">CloudCopy</text><text x="12.024" y="1.67" class="g">upload</text><text x="19.038" y="1.67" class="g">NewAttachment.txt</text><text x="37.074" y="1.67" class="g">Servi</text></svg><svg x="4242"><use xlink:href="#a"/><use xlink:href="#b" x="42.996"/><text y="1.67" class="f">&gt;</text><text x="2.004" y="1.67" class="g">CloudCopy</text><text x="12.024" y="1.67" class="g">upload</text><text x="19.038" y="1.67" class="g">NewAttachment.txt</text><text x="37.074" y="1.67" class="g">Servic</text></svg><svg x="4343"><use xlink:href="#a"/><use xlink:href="#b" x="43.996"/><text y="1.67" class="f">&gt;</text><text x="2.004" y="1.67" class="g">CloudCopy</text><text x="12.024" y="1.67" class="g">upload</text><text x="19.038" y="1.67" class="g">NewAttachment.txt</text><text x="37.074" y="1.67" class="g">Service</text></svg><svg x="4444"><use xlink:href="#a"/><use xlink:href="#b" x="44.996"/><text y="1.67" class="f">&gt;</text><text x="2.004" y="1.67" class="g">CloudCopy</text><text x="12.024" y="1.67" class="g">upload</text><text x="19.038" y="1.67" class="g">NewAttachment.txt</text><text x="37.074" y="1.67" class="g">ServiceR</text></svg><svg x="4545"><use xlink:href="#a"/><use xlink:href="#b" x="45.996"/><text y="1.67" class="f">&gt;</text><text x="2.004" y="1.67" class="g">CloudCopy</text><text x="12.024" y="1.67" class="g">upload</text><text x="19.038" y="1.67" class="g">NewAttachment.txt</text><text x="37.074" y="1.67" class="g">ServiceRe</text></svg><svg x="4646"><use xlink:href="#a"/><use xlink:href="#b" x="46.996"/><text y="1.67" class="f">&gt;</text><text x="2.004" y="1.67" class="g">CloudCopy</text><text x="12.024" y="1.67" class="g">upload</text><text x="19.038" y="1.67" class="g">NewAttachment.txt</text><text x="37.074" y="1.67" class="g">ServiceReq</text></svg><svg x="4747"><use xlink:href="#a"/><use xlink:href="#b" x="47.996"/><text y="1.67" class="f">&gt;</text><text x="2.004" y="1.67" class="g">CloudCopy</text><text x="12.024" y="1.67" class="g">upload</text><text x="19.038" y="1.67" class="g">NewAttachment.txt</text><text x="37.074" y="1.67" class="g">ServiceRequ</text></svg><svg x="4848"><use xlink:href="#a"/><use xlink:href="#b" x="48.996"/><text y="1.67" class="f">&gt;</text><text x="2.004" y="1.67" class="g">CloudCopy</text><text x="12.024" y="1.67" class="g">upload</text><text x="19.038" y="1.67" class="g">NewAttachment.txt</text><text x="37.074" y="1.67" class="g">ServiceReque</text></svg><svg x="4949"><use xlink:href="#a"/><use xlink:href="#b" x="49.996"/><text y="1.67" class="f">&gt;</text><text x="2.004" y="1.67" class="g">CloudCopy</text><text x="12.024" y="1.67" class="g">upload</text><text x="19.038" y="1.67" class="g">NewAttachment.txt</text><text x="37.074" y="1.67" class="g">ServiceReques</text></svg><svg x="5050"><use xlink:href="#a"/><use xlink:href="#b" x="50.996"/><text y="1.67" class="f">&gt;</text><text x="2.004" y="1.67" class="g">CloudCopy</text><text x="12.024" y="1.67" class="g">upload</text><text x="19.038" y="1.67" class="g">NewAttachment.txt</text><text x="37.074" y="1.67" class="g">ServiceRequest</text></svg><svg x="5151"><use xlink:href="#a"/><use xlink:href="#b" x="51.996"/><text y="1.67" class="f">&gt;</text><text x="2.004" y="1.67" class="g">CloudCopy</text><text x="12.024" y="1.67" class="g">upload</text><text x="19.038" y="1.67" class="g">NewAttachment.txt</text><text x="37.074" y="1.67" class="g">ServiceRequest:</text></svg><svg x="5252"><use xlink:href="#a"/><use xlink:href="#b" x="52.996"/><text y="1.67" class="f">&gt;</text><text x="2.004" y="1.67" class="g">CloudCopy</text><text x="12.024" y="1.67" class="g">upload</text><text x="19.038" y="1.67" class="g">NewAttachment.txt</text><text x="37.074" y="1.67" class="g">ServiceRequest:#</text></svg><svg x="5353"><use xlink:href="#a"/><use xlink:href="#b" x="53.996"/><use xlink:href="#5"/></svg><svg x="5454"><use xlink:href="#a"/><use xlink:href="#b" x="-.004" y="2.146"/><use xlink:href="#5"/></svg><svg x="5555"><use xlink:href="#a"/><use xlink:href="#b" x="-.004" y="4.317"/><use xlink:href="#5"/><use xlink:href="#6" y="2.171"/></svg><svg x="5656"><use xlink:href="#a"/><use xlink:href="#b" x="-.004" y="6.488"/><use xlink:href="#5"/><use xlink:href="#6" y="2.171"/><use xlink:href="#7" y="4.342"/></svg><svg x="5757"><use xlink:href="#a"/><use xlink:href="#b" x="-.004" y="13.001"/><use xlink:href="#5"/><use xlink:href="#6" y="2.171"/><use xlink:href="#7" y="4.342"/><use xlink:href="#8" y="6.513"/><use xlink:href="#9" y="8.684"/><use xlink:href="#10" y="10.855"/></svg><svg x="5858"><use xlink:href="#a"/><use xlink:href="#b" x="-.004" y="19.514"/><use xlink:href="#5"/><use xlink:href="#6" y="2.171"/><use xlink:href="#7" y="4.342"/><use xlink:href="#8" y="6.513"/><use xlink:href="#9" y="8.684"/><use xlink:href="#10" y="10.855"/><use xlink:href="#11" y="13.026"/><use xlink:href="#12" y="15.197"/></svg><svg x="5959"><use xlink:href="#a"/><use xlink:href="#b" x="1.996" y="19.514"/><use xlink:href="#5"/><use xlink:href="#6" y="2.171"/><use xlink:href="#7" y="4.342"/><use xlink:href="#8" y="6.513"/><use xlink:href="#9" y="8.684"/><use xlink:href="#10" y="10.855"/><use xlink:href="#11" y="13.026"/><use xlink:href="#12" y="15.197"/><use xlink:href="#1" y="19.539"/></svg><svg x="6060"><use xlink:href="#a"/><use xlink:href="#b" x="2.996" y="19.514"/><use xlink:href="#5"/><use xlink:href="#6" y="2.171"/><use xlink:href="#7" y="4.342"/><use xlink:href="#8" y="6.513"/><use xlink:href="#9" y="8.684"/><use xlink:href="#10" y="10.855"/><use xlink:href="#11" y="13.026"/><use xlink:href="#12" y="15.197"/><text y="21.209" class="f">&gt;</text><text x="2.004" y="21.209" class="g">e</text></svg><svg x="6161"><use xlink:href="#a"/><use xlink:href="#b" x="3.996" y="19.514"/><use xlink:href="#5"/><use xlink:href="#6" y="2.171"/><use xlink:href="#7" y="4.342"/><use xlink:href="#8" y="6.513"/><use xlink:href="#9" y="8.684"/><use xlink:href="#10" y="10.855"/><use xlink:href="#11" y="13.026"/><use xlink:href="#12" y="15.197"/><text y="21.209" class="f">&gt;</text><text x="2.004" y="21.209" class="g">ec</text></svg><svg x="6262"><use xlink:href="#a"/><use xlink:href="#b" x="4.996" y="19.514"/><use xlink:href="#5"/><use xlink:href="#6" y="2.171"/><use xlink:href="#7" y="4.342"/><use xlink:href="#8" y="6.513"/><use xlink:href="#9" y="8.684"/><use xlink:href="#10" y="10.855"/><use xlink:href="#11" y="13.026"/><use xlink:href="#12" y="15.197"/><text y="21.209" class="f">&gt;</text><text x="2.004" y="21.209" class="g">ech</text></svg><svg x="6363"><use xlink:href="#a"/><use xlink:href="#b" x="5.996" y="19.514"/><use xlink:href="#5"/><use xlink:href="#6" y="2.171"/><use xlink:href="#7" y="4.342"/><use xlink:href="#8" y="6.513"/><use xlink:href="#9" y="8.684"/><use xlink:href="#10" y="10.855"/><use xlink:href="#11" y="13.026"/><use xlink:href="#12" y="15.197"/><use xlink:href="#13" y="19.539"/></svg><svg x="6464"><use xlink:href="#a"/><use xlink:href="#b" x="6.996" y="19.514"/><use xlink:href="#5"/><use xlink:href="#6" y="2.171"/><use xlink:href="#7" y="4.342"/><use xlink:href="#8" y="6.513"/><use xlink:href="#9" y="8.684"/><use xlink:href="#10" y="10.855"/><use xlink:href="#11" y="13.026"/><use xlink:href="#12" y="15.197"/><use xlink:href="#13" y="19.539"/></svg><svg x="6565"><use xlink:href="#a"/><use xlink:href="#b" x="7.996" y="19.514"/><use xlink:href="#5"/><use xlink:href="#6" y="2.171"/><use xlink:href="#7" y="4.342"/><use xlink:href="#8" y="6.513"/><use xlink:href="#9" y="8.684"/><use xlink:href="#10" y="10.855"/><use xlink:href="#11" y="13.026"/><use xlink:href="#12" y="15.197"/><text y="21.209" class="f">&gt;</text><text x="2.004" y="21.209" class="g">echo</text><text x="7.014" y="21.209" class="g">&quot;</text></svg><svg x="6666"><use xlink:href="#a"/><use xlink:href="#b" x="8.996" y="19.514"/><use xlink:href="#5"/><use xlink:href="#6" y="2.171"/><use xlink:href="#7" y="4.342"/><use xlink:href="#8" y="6.513"/><use xlink:href="#9" y="8.684"/><use xlink:href="#10" y="10.855"/><use xlink:href="#11" y="13.026"/><use xlink:href="#12" y="15.197"/><text y="21.209" class="f">&gt;</text><text x="2.004" y="21.209" class="g">echo</text><text x="7.014" y="21.209" class="g">&quot;S</text></svg><svg x="6767"><use xlink:href="#a"/><use xlink:href="#b" x="9.996" y="19.514"/><use xlink:href="#5"/><use xlink:href="#6" y="2.171"/><use xlink:href="#7" y="4.342"/><use xlink:href="#8" y="6.513"/><use xlink:href="#9" y="8.684"/><use xlink:href="#10" y="10.855"/><use xlink:href="#11" y="13.026"/><use xlink:href="#12" y="15.197"/><text y="21.209" class="f">&gt;</text><text x="2.004" y="21.209" class="g">echo</text><text x="7.014" y="21.209" class="g">&quot;Se</text></svg><svg x="6868"><use xlink:href="#a"/><use xlink:href="#b" x="10.996" y="19.514"/><use xlink:href="#5"/><use xlink:href="#6" y="2.171"/><use xlink:href="#7" y="4.342"/><use xlink:href="#8" y="6.513"/><use xlink:href="#9" y="8.684"/><use xlink:href="#10" y="10.855"/><use xlink:href="#11" y="13.026"/><use xlink:href="#12" y="15.197"/><use xlink:href="#14" y="19.539"/></svg><svg x="6969"><use xlink:href="#a"/><use xlink:href="#b" x="11.996" y="19.514"/><use xlink:href="#5"/><use xlink:href="#6" y="2.171"/><use xlink:href="#7" y="4.342"/><use xlink:href="#8" y="6.513"/><use xlink:href="#9" y="8.684"/><use xlink:href="#10" y="10.855"/><use xlink:href="#11" y="13.026"/><use xlink:href="#12" y="15.197"/><use xlink:href="#14" y="19.539"/></svg><svg x="7070"><use xlink:href="#a"/><use xlink:href="#b" x="12.996" y="19.514"/><use xlink:href="#5"/><use xlink:href="#6" y="2.171"/><use xlink:href="#7" y="4.342"/><use xlink:href="#8" y="6.513"/><use xlink:href="#9" y="8.684"/><use xlink:href="#10" y="10.855"/><use xlink:href="#11" y="13.026"/><use xlink:href="#12" y="15.197"/><text y="21.209" class="f">&gt;</text><text x="2.004" y="21.209" class="g">echo</text><text x="7.014" y="21.209" class="g">&quot;See</text><text x="12.024" y="21.209" class="g">m</text></svg><svg x="7171"><use xlink:href="#a"/><use xlink:href="#b" x="13.996" y="19.514"/><use xlink:href="#5"/><use xlink:href="#6" y="2.171"/><use xlink:href="#7" y="4.342"/><use xlink:href="#8" y="6.513"/><use xlink:href="#9" y="8.684"/><use xlink:href="#10" y="10.855"/><use xlink:href="#11" y="13.026"/><use xlink:href="#12" y="15.197"/><text y="21.209" class="f">&gt;</text><text x="2.004" y="21.209" class="g">echo</text><text x="7.014" y="21.209" class="g">&quot;See</text><text x="12.024" y="21.209" class="g">mo</text></svg><svg x="7272"><use xlink:href="#a"/><use xlink:href="#b" x="14.996" y="19.514"/><use xlink:href="#5"/><use xlink:href="#6" y="2.171"/><use xlink:href="#7" y="4.342"/><use xlink:href="#8" y="6.513"/><use xlink:href="#9" y="8.684"/><use xlink:href="#10" y="10.855"/><use xlink:href="#11" y="13.026"/><use xlink:href="#12" y="15.197"/><text y="21.209" class="f">&gt;</text><text x="2.004" y="21.209" class="g">echo</text><text x="7.014" y="21.209" class="g">&quot;See</text><text x="12.024" y="21.209" class="g">mor</text></svg><svg x="7373"><use xlink:href="#a"/><use xlink:href="#b" x="15.996" y="19.514"/><use xlink:href="#5"/><use xlink:href="#6" y="2.171"/><use xlink:href="#7" y="4.342"/><use xlink:href="#8" y="6.513"/><use xlink:href="#9" y="8.684"/><use xlink:href="#10" y="10.855"/><use xlink:href="#11" y="13.026"/><use xlink:href="#12" y="15.197"/><use xlink:href="#15" y="19.539"/></svg><svg x="7474"><use xlink:href="#a"/><use xlink:href="#b" x="16.996" y="19.514"/><use xlink:href="#5"/><use xlink:href="#6" y="2.171"/><use xlink:href="#7" y="4.342"/><use xlink:href="#8" y="6.513"/><use xlink:href="#9" y="8.684"/><use xlink:href="#10" y="10.855"/><use xlink:href="#11" y="13.026"/><use xlink:href="#12" y="15.197"/><use xlink:href="#15" y="19.539"/></svg><svg x="7575"><use xlink:href="#a"/><use xlink:href="#b" x="17.996" y="19.514"/><use xlink:href="#5"/><use xlink:href="#6" y="2.171"/><use xlink:href="#7" y="4.342"/><use xlink:href="#8" y="6.513"/><use xlink:href="#9" y="8.684"/><use xlink:href="#10" y="10.855"/><use xlink:href="#11" y="13.026"/><use xlink:href="#12" y="15.197"/><text y="21.209" class="f">&gt;</text><text x="2.004" y="21.209" class="g">echo</text><text x="7.014" y="21.209" class="g">&quot;See</text><text x="12.024" y="21.209" class="g">more</text><text x="17.034" y="21.209" class="g">e</text></svg><svg x="7676"><use xlink:href="#a"/><use xlink:href="#b" x="18.996" y="19.514"/><use xlink:href="#5"/><use xlink:href="#6" y="2.171"/><use xlink:href="#7" y="4.342"/><use xlink:href="#8" y="6.513"/><use xlink:href="#9" y="8.684"/><use xlink:href="#10" y="10.855"/><use xlink:href="#11" y="13.026"/><use xlink:href="#12" y="15.197"/><text y="21.209" class="f">&gt;</text><text x="2.004" y="21.209" class="g">echo</text><text x="7.014" y="21.209" class="g">&quot;See</text><text x="12.024" y="21.209" class="g">more</text><text x="17.034" y="21.209" class="g">ex</text></svg><svg x="7777"><use xlink:href="#a"/><use xlink:href="#b" x="19.996" y="19.514"/><use xlink:href="#5"/><use xlink:href="#6" y="2.171"/><use xlink:href="#7" y="4.342"/><use xlink:href="#8" y="6.513"/><use xlink:href="#9" y="8.684"/><use xlink:href="#10" y="10.855"/><use xlink:href="#11" y="13.026"/><use xlink:href="#12" y="15.197"/><text y="21.209" class="f">&gt;</text><text x="2.004" y="21.209" class="g">echo</text><text x="7.014" y="21.209" class="g">&quot;See</text><text x="12.024" y="21.209" class="g">more</text><text x="17.034" y="21.209" class="g">exa</text></svg><svg x="7878"><use xlink:href="#a"/><use xlink:href="#b" x="20.996" y="19.514"/><use xlink:href="#5"/><use xlink:href="#6" y="2.171"/><use xlink:href="#7" y="4.342"/><use xlink:href="#8" y="6.513"/><use xlink:href="#9" y="8.684"/><use xlink:href="#10" y="10.855"/><use xlink:href="#11" y="13.026"/><use xlink:href="#12" y="15.197"/><text y="21.209" class="f">&gt;</text><text x="2.004" y="21.209" class="g">echo</text><text x="7.014" y="21.209" class="g">&quot;See</text><text x="12.024" y="21.209" class="g">more</text><text x="17.034" y="21.209" class="g">exam</text></svg><svg x="7979"><use xlink:href="#a"/><use xlink:href="#b" x="21.996" y="19.514"/><use xlink:href="#5"/><use xlink:href="#6" y="2.171"/><use xlink:href="#7" y="4.342"/><use xlink:href="#8" y="6.513"/><use xlink:href="#9" y="8.684"/><use xlink:href="#10" y="10.855"/><use xlink:href="#11" y="13.026"/><use xlink:href="#12" y="15.197"/><text y="21.209" class="f">&gt;</text><text x="2.004" y="21.209" class="g">echo</text><text x="7.014" y="21.209" class="g">&quot;See</text><text x="12.024" y="21.209" class="g">more</text><text x="17.034" y="21.209" class="g">examp</text></svg><svg x="8080"><use xlink:href="#a"/><use xlink:href="#b" x="22.996" y="19.514"/><use xlink:href="#5"/><use xlink:href="#6" y="2.171"/><use xlink:href="#7" y="4.342"/><use xlink:href="#8" y="6.513"/><use xlink:href="#9" y="8.684"/><use xlink:href="#10" y="10.855"/><use xlink:href="#11" y="13.026"/><use xlink:href="#12" y="15.197"/><text y="21.209" class="f">&gt;</text><text x="2.004" y="21.209" class="g">echo</text><text x="7.014" y="21.209" class="g">&quot;See</text><text x="12.024" y="21.209" class="g">more</text><text x="17.034" y="21.209" class="g">exampl</text></svg><svg x="8181"><use xlink:href="#a"/><use xlink:href="#b" x="23.996" y="19.514"/><use xlink:href="#5"/><use xlink:href="#6" y="2.171"/><use xlink:href="#7" y="4.342"/><use xlink:href="#8" y="6.513"/><use xlink:href="#9" y="8.684"/><use xlink:href="#10" y="10.855"/><use xlink:href="#11" y="13.026"/><use xlink:href="#12" y="15.197"/><text y="21.209" class="f">&gt;</text><text x="2.004" y="21.209" class="g">echo</text><text x="7.014" y="21.209" class="g">&quot;See</text><text x="12.024" y="21.209" class="g">more</text><text x="17.034" y="21.209" class="g">example</text></svg><svg x="8282"><use xlink:href="#a"/><use xlink:href="#b" x="24.996" y="19.514"/><use xlink:href="#5"/><use xlink:href="#6" y="2.171"/><use xlink:href="#7" y="4.342"/><use xlink:href="#8" y="6.513"/><use xlink:href="#9" y="8.684"/><use xlink:href="#10" y="10.855"/><use xlink:href="#11" y="13.026"/><use xlink:href="#12" y="15.197"/><use xlink:href="#16" y="19.539"/></svg><svg x="8383"><use xlink:href="#a"/><use xlink:href="#b" x="25.996" y="19.514"/><use xlink:href="#5"/><use xlink:href="#6" y="2.171"/><use xlink:href="#7" y="4.342"/><use xlink:href="#8" y="6.513"/><use xlink:href="#9" y="8.684"/><use xlink:href="#10" y="10.855"/><use xlink:href="#11" y="13.026"/><use xlink:href="#12" y="15.197"/><use xlink:href="#16" y="19.539"/></svg><svg x="8484"><use xlink:href="#a"/><use xlink:href="#b" x="26.996" y="19.514"/><use xlink:href="#5"/><use xlink:href="#6" y="2.171"/><use xlink:href="#7" y="4.342"/><use xlink:href="#8" y="6.513"/><use xlink:href="#9" y="8.684"/><use xlink:href="#10" y="10.855"/><use xlink:href="#11" y="13.026"/><use xlink:href="#12" y="15.197"/><text y="21.209" class="f">&gt;</text><text x="2.004" y="21.209" class="g">echo</text><text x="7.014" y="21.209" class="g">&quot;See</text><text x="12.024" y="21.209" class="g">more</text><text x="17.034" y="21.209" class="g">examples</text><text x="26.052" y="21.209" class="g">b</text></svg><svg x="8585"><use xlink:href="#a"/><use xlink:href="#b" x="27.996" y="19.514"/><use xlink:href="#5"/><use xlink:href="#6" y="2.171"/><use xlink:href="#7" y="4.342"/><use xlink:href="#8" y="6.513"/><use xlink:href="#9" y="8.684"/><use xlink:href="#10" y="10.855"/><use xlink:href="#11" y="13.026"/><use xlink:href="#12" y="15.197"/><text y="21.209" class="f">&gt;</text><text x="2.004" y="21.209" class="g">echo</text><text x="7.014" y="21.209" class="g">&quot;See</text><text x="12.024" y="21.209" class="g">more</text><text x="17.034" y="21.209" class="g">examples</text><text x="26.052" y="21.209" class="g">be</text></svg><svg x="8686"><use xlink:href="#a"/><use xlink:href="#b" x="28.996" y="19.514"/><use xlink:href="#5"/><use xlink:href="#6" y="2.171"/><use xlink:href="#7" y="4.342"/><use xlink:href="#8" y="6.513"/><use xlink:href="#9" y="8.684"/><use xlink:href="#10" y="10.855"/><use xlink:href="#11" y="13.026"/><use xlink:href="#12" y="15.197"/><text y="21.209" class="f">&gt;</text><text x="2.004" y="21.209" class="g">echo</text><text x="7.014" y="21.209" class="g">&quot;See</text><text x="12.024" y="21.209" class="g">more</text><text x="17.034" y="21.209" class="g">examples</text><text x="26.052" y="21.209" class="g">bel</text></svg><svg x="8787"><use xlink:href="#a"/><use xlink:href="#b" x="29.996" y="19.514"/><use xlink:href="#5"/><use xlink:href="#6" y="2.171"/><use xlink:href="#7" y="4.342"/><use xlink:href="#8" y="6.513"/><use xlink:href="#9" y="8.684"/><use xlink:href="#10" y="10.855"/><use xlink:href="#11" y="13.026"/><use xlink:href="#12" y="15.197"/><text y="21.209" class="f">&gt;</text><text x="2.004" y="21.209" class="g">echo</text><text x="7.014" y="21.209" class="g">&quot;See</text><text x="12.024" y="21.209" class="g">more</text><text x="17.034" y="21.209" class="g">examples</text><text x="26.052" y="21.209" class="g">belo</text></svg><svg x="8888"><use xlink:href="#a"/><use xlink:href="#b" x="30.996" y="19.514"/><use xlink:href="#5"/><use xlink:href="#6" y="2.171"/><use xlink:href="#7" y="4.342"/><use xlink:href="#8" y="6.513"/><use xlink:href="#9" y="8.684"/><use xlink:href="#10" y="10.855"/><use xlink:href="#11" y="13.026"/><use xlink:href="#12" y="15.197"/><text y="21.209" class="f">&gt;</text><text x="2.004" y="21.209" class="g">echo</text><text x="7.014" y="21.209" class="g">&quot;See</text><text x="12.024" y="21.209" class="g">more</text><text x="17.034" y="21.209" class="g">examples</text><text x="26.052" y="21.209" class="g">below</text></svg><svg x="8989"><use xlink:href="#a"/><use xlink:href="#b" x="31.996" y="19.514"/><use xlink:href="#5"/><use xlink:href="#6" y="2.171"/><use xlink:href="#7" y="4.342"/><use xlink:href="#8" y="6.513"/><use xlink:href="#9" y="8.684"/><use xlink:href="#10" y="10.855"/><use xlink:href="#11" y="13.026"/><use xlink:href="#12" y="15.197"/><use xlink:href="#17" y="19.539"/></svg><svg x="9090"><use xlink:href="#a"/><use xlink:href="#b" x="31.996" y="19.514"/><use xlink:href="#5"/><use xlink:href="#6" y="2.171"/><use xlink:href="#7" y="4.342"/><use xlink:href="#8" y="6.513"/><use xlink:href="#9" y="8.684"/><use xlink:href="#10" y="10.855"/><use xlink:href="#11" y="13.026"/><use xlink:href="#12" y="15.197"/><use xlink:href="#17" y="19.539"/></svg></svg></g></g></svg></svg>